<svg xmlns="http://www.w3.org/2000/svg" width="190" height="44" viewBox="0 0 190 44">
    <g fill="#FFF" fill-rule="evenodd">
        <path d="M13.884 27.78s5.346 1.825 6.743-5.237c.29-3.363-2.697-6.245-6.984-6.053C9.356 16.682.83 18.556.156 33.592c.144 9.511 7.755 9.752 9.392 9.752 1.638 0 7.707-1.393 11.272-6.534 1.412-2.02 2.07-3.202 2.585-4.099.431-.752-.58-6.638-.541-7.153.037-.492-1.948 3.999-1.948 3.999s-3.853 9.8-10.019 9.703c-3.323-.096-4.383-3.65-4.383-6.149.145-4.227 2.795-12.969 7.177-13.114 1.445-.048 1.686 1.585 1.638 3.026-.05 1.492-.29 2.979-1.445 4.756M156.297 27.78s5.347 1.825 6.743-5.237c.29-3.363-2.697-6.245-6.984-6.053-4.287.192-12.812 2.066-13.487 17.102.144 9.511 7.755 9.752 9.393 9.752 1.638 0 8.694-1.57 12.258-6.71 1.412-2.02 2.072-3.202 2.585-4.1.432-.751-.58-6.637-.54-7.152.037-.492-1.948 3.998-1.948 3.998s-4.841 9.977-11.007 9.88c-3.323-.096-4.383-3.65-4.383-6.149.145-4.227 2.795-12.969 7.177-13.114 1.445-.048 1.686 1.585 1.638 3.026-.05 1.492-.29 2.979-1.445 4.756"/>
        <path d="M37.513 30.213c-.9 4.996-4.047 9.056-6.744 8.967-3.403-.112-3.26-3.186-3.275-5.636.642-9.736 3.982-13.259 7.385-13.259 3.405 0 3.533 4.932 2.634 9.928m-2.57-13.771c-5.009-.128-13.037 4.164-13.808 16.461-.256 8.903 5.775 10.45 8.607 10.505 3.275.063 12.242-1.66 13.936-12.81 1.606-10.569-4.689-14.052-8.734-14.156M83.817 20.069c1.397-.144 2 1.129 1.943 2.33-.285 6.1-7.843 8.454-8.277 8.046.129-6.02 4.737-10.211 6.334-10.376m12.283.192s-3.227 8.887-4.118 10.496c-.891 1.61-5.226 8.743-10.91 8.551-3.404-.256-4.046-4.804-3.974-6.1.923.016 1.405.063 2.529.023 3.885.056 11.014-3.338 11.247-11.048.048-4.372-3.845-5.58-6.55-5.74-9.032-.097-13.785 8.838-13.825 17.221.168 2.634 1.164 9.68 9.128 9.68 10.18-.16 13.752-8.263 14.86-9.897 1.107-1.633 4.72-11.312 4.961-11.84-1.518-.673-3.348-1.346-3.348-1.346M132.159 37.435s-6.045 5.933-11.777 6.029c-4.624.077-5.162-3.46-5.05-4.852.112-1.393 1.22-8.52 2.505-13.451 0 0 4.68-19.688 5.443-21.741.819-2.206 1.532-2.325 2.312-2.69.915-.429 4.383-1.353 4.11.256-.25 1.474-4.223 18.155-5.25 22.318-1.028 4.163-3.295 13.028-3.227 14.06.072 1.104.666 1.472 1.324 1.488 1.794.016 6.954-3.052 8.213-5.068l1.397 3.65z"/>
        <path d="M145.517 37.363s-6.045 5.932-11.777 6.028c-4.623.078-5.161-3.458-5.05-4.851.113-1.393 1.35-8.871 1.542-9.704.193-.833.723-5.252 1.493-7.302.771-2.05 1.542-2.305 2.312-2.69.771-.384 4.368-1.217 4.11.256-.256 1.473-.561 2.754-.914 4.131-1.066 4.154-2.717 13.03-2.65 14.06.072 1.104.667 1.473 1.325 1.489 1.814-.008 7.2-3.339 8.213-5.068l1.396 3.65zM107.753 26.402c-.064 5.252-3.5 12.714-6.743 12.586-3.403-.134-3.677-2.61-3.693-5.06.111-1.684.38-3.194.768-4.54.731-2.54 1.774-4.768 3.029-6.293 1.662-2.017 2.464-2.374 4.166-2.33 2.473.065 2.503 3.235 2.473 5.637M90.445 40.845c-.565 2.907 1.782 2.45 2.408 2.45.626 0 2.018-.112 2.312-.4.204-.2.37-1.015.677-3.19.788 1.772 2.504 3.52 5.296 3.542 3.982.032 12.138-2.241 12.684-17.677.212-5.986-2.698-8.96-6.743-9.064-2.084-.053-4.81.958-6.832 3.514 1.14-4.762 4.228-17.963 4.455-19.128.301-1.552-2.942-.51-3.712-.126-.771.385-1.213.508-1.927 2.595-.483 1.41-4.014 17.202-4.347 18.696-.333 1.495-4.271 18.788-4.271 18.788M166.204 24.405c-1.117 5.132-3.057 13.442-3.52 16.249-.566 2.906 2.902 2.617 3.529 2.617.626 0 2.663-.12 2.957-.408.294-.288-.16-1.825.514-6.917.172-1.3.438-2.76.745-4.231.712-.577 2.325-1.831 4.604-3.305.008 3.384.282 8.373 1.109 11.582 1.174 4.553 7.168 3.456 7.965 3.207 4.456-1.454 5.897-5.78 5.3-8.546 0 0-.593-2.701-2.494-1.304.185 1.989-1.307 5.12-2.951 5.617-1.129.317-1.882.166-2.33-1.423-.498-1.593-.704-7.644-.895-12.398 2.028-1.015 3.686-1.983 6.067-2.77 1.132-.433 1.301-.673 1.543-1.331a228.75 228.75 0 0 0 1.305-3.839c.207-.834-.369-.95-1.523-.859-1.228.096-4.582 1.473-5.924 2.234-.957.542-6.352 3.331-10.815 6.51 1.22-5.574 5.78-22.035 6.415-24.054.541-1.72-3.28-.684-4.086-.379-.835.317-1.622.525-2.312 2.69l-5.203 21.058zM134.423 8.907c.433-1.821 1.429-2.25 2.2-2.542.944-.358 4.447-1.273 4.174.336-.242 1.426-.257 1.546-.562 2.787-.322 1.354-1.447 2.466-2.906 2.466 0 0-3.648.07-2.906-3.047M61.59 30.791c-.898 4.996-4.046 9.056-6.743 8.967-3.403-.111-3.26-3.186-3.275-5.636.642-9.735 3.982-13.258 7.385-13.258 3.405 0 3.533 4.931 2.634 9.927M74.31.72c.205-.908-2.396-.513-3.536.01-.884.405-2.1 1.448-2.457 2.786-.322 1.207-3.74 16.79-3.821 16.676-.23-.323-.867-2.898-4.865-3.427-3.998-.528-11.24 4.427-12.957 12.987-.498 2.482-.607 5.58-.362 7.157.217 1.393 1.537 7.154 6.96 6.581 5.01-.528 6.075-3.305 6.6-3.218.578.096-.05 3.164 4.383 3.075 6.294-.129 12.33-5.893 12.33-5.893s-1.332-3.627-1.797-3.203c-.466.425-3.79 3.475-7.04 4.436-2.385.456-1.807-2.426-1.88-2.066-.072.36 2.096-9.8 2.096-9.8s6.26-25.714 6.347-26.1"/>
        <path d="M109.824 28.19c10.014-1.831 12.999-10.284 13.822-12.078l-2.191-1.912c-.613 1.734-4.434 9.154-10.072 9.899l-1.559 4.092zM39.916 30.442c10.173-.38 13.182-7.55 14.254-9.206l-1.48-1.724c-3.152 2.912-4.957 7.172-10.643 7.103l-2.131 3.827z"/>
    </g>
</svg>
